<svg width="315" height="153" viewBox="0 0 315 153" fill="none" xmlns="http://www.w3.org/2000/svg">
<path d="M314.281 109.616L306.332 75.1759C304.676 68.2201 298.716 62.9232 291.76 62.2603L237.448 57.2937L197.046 4.96659C194.726 1.9866 191.086 0 187.11 0H70.2073C65.9013 0 61.928 2.3193 59.6087 5.95985L27.1547 57.9546L19.869 62.2605C7.6163 69.8768 0 83.4553 0 98.025V116.24C0 121.869 4.63625 126.506 10.5986 126.506H27.157C27.157 104.981 44.709 87.4288 66.2338 87.4288C87.7586 87.4288 105.311 104.981 105.311 126.506H209.629C209.629 104.981 227.181 87.4288 248.706 87.4288C270.23 87.4288 287.782 104.981 287.782 126.506H301.028C309.644 126.506 316.268 118.226 314.281 109.616V109.616ZM112.93 54.6416H58.9487L77.4936 25.1676H113.26V54.6416H112.93ZM138.098 54.6416V25.1676H180.818L203.669 54.6416H138.098Z" fill="#B84717"/>
<path d="M92.7285 126.505C92.7285 141.137 80.8661 153 66.2344 153C51.6026 153 39.7402 141.137 39.7402 126.505C39.7402 111.874 51.6026 100.014 66.2344 100.014C80.8661 100.014 92.7285 111.874 92.7285 126.505" fill="#B84717"/>
<path d="M274.872 126.505C274.872 141.137 263.01 153 248.378 153C233.746 153 221.884 141.137 221.884 126.505C221.884 111.874 233.746 100.014 248.378 100.014C263.01 100.014 274.872 111.874 274.872 126.505" fill="#B84717"/>
</svg>
