<svg width="306" height="151" viewBox="0 0 306 151" fill="none" xmlns="http://www.w3.org/2000/svg">
<path d="M14.5589 56.4372V37.6238H58.2564V18.8104H87.3898L87.3921 0H189.447V18.8134H218.61V37.6268H276.87V56.4402L291.436 56.4432H306V112.959H276.869V131.769H262.303V94.1476H233.174V131.769H218.608V112.959H101.989V131.769H87.3951V94.1476H58.2616V131.769H43.6952V112.959H3.54873e-05V56.4371L14.5589 56.4372ZM101.985 18.8126V37.626H72.8234V56.4394H101.985L116.551 56.4424V18.8148L101.985 18.8126ZM189.44 37.623H174.876V18.8096H131.113V56.4372H204.004V37.6238L189.44 37.623ZM291.429 94.1416V75.3282H276.863V94.1416H291.429ZM14.553 94.1416H29.1194V75.3282H14.553V94.1416Z" fill="#B84717"/>
<path d="M87.3989 131.763V150.615H58.2631V131.763H87.3989Z" fill="#B84717"/>
<path d="M262.301 131.763V150.615H233.173V131.763H262.301Z" fill="#B84717"/>
</svg>
