<svg width="265" height="183" viewBox="0 0 265 183" fill="none" xmlns="http://www.w3.org/2000/svg">
<path d="M183.92 62.802H242.001L222.955 27.2184C221.192 23.9216 218.566 21.1675 215.359 19.2499C212.152 17.3324 208.481 16.3231 204.745 16.3321H175.829V55.008C175.829 59.3164 179.61 62.8015 183.921 62.8015L183.92 62.802Z" fill="#B84717"/>
<path d="M80.5245 157.438C80.5245 171.096 69.4522 182.168 55.7939 182.168C42.1357 182.168 31.061 171.096 31.061 157.438C31.061 143.779 42.1357 132.707 55.7939 132.707C69.4522 132.707 80.5245 143.779 80.5245 157.438Z" fill="#B84717"/>
<path d="M195.604 132.709C189.046 132.709 182.755 135.313 178.117 139.953C173.479 144.591 170.873 150.879 170.873 157.44C170.873 164 173.479 170.291 178.117 174.929C182.755 179.566 189.046 182.17 195.606 182.17C202.166 182.17 208.455 179.564 213.093 174.926C217.731 170.288 220.337 163.997 220.337 157.437C220.328 150.882 217.719 144.595 213.083 139.96C208.448 135.324 202.162 132.716 195.604 132.709V132.709Z" fill="#B84717"/>
<path d="M247.758 72.8491H183.925C174.075 72.8491 165.786 64.8582 165.786 55.0082V7.43937C165.831 5.43659 165.048 3.50333 163.622 2.09714C162.195 0.688716 160.253 -0.0670856 158.25 0.0046822H8.00871C3.69817 0.0046822 0 3.13106 0 7.43925V144.923C0 149.234 3.69828 152.598 8.00871 152.598H21.342C22.8671 141.393 29.7457 131.629 39.784 126.42C49.8223 121.212 61.7651 121.213 71.804 126.42C81.8428 131.628 88.7234 141.393 90.246 152.598H161.153C162.678 141.393 169.559 131.63 179.595 126.423C189.633 121.215 201.578 121.215 211.616 126.423C221.655 131.63 228.533 141.393 230.058 152.598H256.991C261.3 152.598 265 149.234 265 144.926V101.843C264.957 97.2316 263.39 92.766 260.541 89.1397L247.758 72.8491Z" fill="#B84717"/>
</svg>
